<svg id="svg" version="1.1" xmlns="http://www.w3.org/2000/svg" xmlns:xlink="http://www.w3.org/1999/xlink" width="400" height="345.0762829403606" viewBox="0, 0, 400,345.0762829403606"><g id="svgg"><path id="path0" d="M237.171 2.410 C 223.558 5.922,197.548 21.300,178.193 37.278 C 130.824 76.386,95.325 129.947,66.851 205.270 C 62.503 216.772,52.705 245.789,52.705 247.164 C 52.705 247.600,51.379 248.277,49.515 248.793 C 12.380 259.070,-4.781 275.168,2.286 293.096 C 22.942 345.500,253.111 361.558,342.857 316.857 C 387.964 294.390,378.761 263.594,322.627 249.153 L 316.607 247.605 312.243 232.401 C 309.843 224.040,304.364 205.215,300.067 190.569 C 295.769 175.922,290.139 156.699,287.554 147.850 C 284.969 139.001,281.251 126.344,279.291 119.723 C 275.061 105.431,275.073 105.575,277.927 102.997 C 285.985 95.717,285.541 95.584,303.400 110.656 C 327.487 130.985,332.880 134.254,343.071 134.709 C 355.605 135.268,373.256 120.290,386.416 97.929 C 402.643 70.358,403.395 54.282,387.960 64.956 C 367.748 78.934,351.965 87.656,346.886 87.656 C 344.221 87.656,342.906 86.364,338.012 78.932 C 308.841 34.640,258.960 -3.212,237.171 2.410 M76.560 283.746 C 161.686 301.969,244.229 300.776,304.854 280.446 C 307.979 279.398,302.487 282.854,295.978 286.032 C 246.005 310.427,141.494 311.747,77.947 288.785 C 69.121 285.595,55.771 278.907,61.165 280.377 C 61.852 280.564,68.779 282.080,76.560 283.746 " stroke="none" fill="#000000" fill-rule="evenodd"></path></g></svg>